<svg width="212" height="28" viewBox="0 0 212 28" fill="none" xmlns="http://www.w3.org/2000/svg">
<path fill-rule="evenodd" clip-rule="evenodd" d="M6.92836 17.1856L14.4397 20.6583C15.3706 21.0889 16.0278 21.8116 16.3827 22.6406C17.2803 24.7399 16.0535 26.8869 14.1276 27.6591C12.2015 28.4309 10.1486 27.9342 9.21523 25.7511L5.94631 18.0866C5.693 17.4925 6.32934 16.9087 6.92836 17.1856" fill="#FFC233"/>
<path fill-rule="evenodd" clip-rule="evenodd" d="M7.37953 14.9376L15.1331 12.0066C17.71 11.0325 20.5249 12.8756 20.487 15.5536C20.4864 15.5886 20.4858 15.6235 20.4849 15.6588C20.4292 18.2666 17.6926 20.0194 15.1723 19.0968L7.38687 16.2473C6.76582 16.0201 6.76123 15.1713 7.37953 14.9376" fill="#FFC233"/>
<path fill-rule="evenodd" clip-rule="evenodd" d="M6.9449 13.9224L14.567 10.6837C17.0998 9.60736 17.7426 6.37695 15.7589 4.51043C15.7329 4.48585 15.7069 4.46156 15.6806 4.43728C13.7357 2.63207 10.5207 3.26767 9.41349 5.64539L5.99314 12.9915C5.72024 13.5773 6.33701 14.1806 6.9449 13.9224" fill="#FFC233"/>
<path fill-rule="evenodd" clip-rule="evenodd" d="M4.98349 12.6426L7.75465 5.04415C8.09822 4.102 8.03458 3.1412 7.67939 2.3122C6.77994 0.21378 4.34409 -0.463579 2.41853 0.309741C0.493284 1.08336 -0.594621 2.84029 0.340622 5.02253L3.63095 12.6787C3.8861 13.272 4.76261 13.2486 4.98349 12.6426" fill="#FFC233"/>
</svg>
