<svg viewBox="0 0 32 32" fill="none" xmlns="http://www.w3.org/2000/svg">
    <path fill-rule="evenodd" clip-rule="evenodd" d="M27.0905 24.0539L15.9163 4.46753C15.8791 4.40469 15.8271 4.35146 15.7649 4.31188C15.7028 4.27231 15.6324 4.24748 15.559 4.23929C15.4855 4.23111 15.4108 4.23976 15.3411 4.26458C15.2714 4.28941 15.2084 4.32974 15.1569 4.38252L5.04038 14.9404C4.98536 14.9983 4.94753 15.0705 4.93103 15.1487C4.91453 15.227 4.92001 15.3083 4.94689 15.3832L8.93486 25.9429C8.96125 26.0157 9.00657 26.0805 9.06621 26.1305C9.12585 26.1806 9.19748 26.2143 9.27444 26.2282L21.4797 27.9769C21.5251 27.9843 21.5712 27.9843 21.6167 27.9769C21.7195 27.9591 21.8107 27.9053 21.8735 27.8251C21.9363 27.7448 21.9661 27.6439 21.9574 27.5425L27.0905 24.0539ZM14.9634 6.78478L24.4187 23.1806L8.75008 14.9404L14.9634 6.78478ZM23.2405 24.5128L9.90768 25.0995L7.16163 16.9564L23.2405 24.5128Z" fill="currentColor"/>
</svg> 